<?xml version="1.0" encoding="utf-8"?><svg xmlns="http://www.w3.org/2000/svg" width="280" height="59" preserveAspectRatio="xMidYMid" xmlns:xlink="http://www.w3.org/1999/xlink" style="margin-right:-2px;display:block;animation-play-state:paused" ><style type="text/css" style="animation-play-state:paused" >text {
    text-anchor: middle; font-size: 46px; opacity: 0;
  }</style>


<g style="transform-origin:140px 29.5px;transform:matrix(1, 0, 0, 1, 0, 0);animation-play-state:paused" ><g transform="translate(140,29.5)" style="transform:matrix(1, 0, 0, 1, 140, 29.5);animation-play-state:paused" ><g transform="translate(0,0)" style="transform:matrix(1, 0, 0, 1, 0, 0);animation-play-state:paused" ><g class="path" style="transform-origin:-108.055px -1.52575px;transform:matrix(1.00565, 0, 0, 1.00565, 0, 0);animation-timing-function:linear;animation-play-state:paused;animation-name:breath-629b9d7c-0de3-4226-b563-7e09d9233bb3;animation-iteration-count:infinite;animation-fill-mode:forwards;animation-duration:1s;animation-delay:-0.609231s" ><path d="M9.66-6.26L9.66-6.26L9.66-6.26Q9.66 0.64 14.12 2.85L14.12 2.85L14.12 2.85Q15.23 2.99 17.04 2.99L17.04 2.99L17.04 2.99Q18.86 2.99 20.88 2.30L20.88 2.30L20.88 2.30Q22.91 1.61 24.01 0.60L24.01 0.60L24.01 0.60Q26.36-1.56 26.96-3.13L26.96-3.13L27.19-3.82L28.11-3.45L28.11-3.45Q27.78-2.39 26.86-1.01L26.86-1.01L26.86-1.01Q25.94 0.37 24.77 1.33L24.77 1.33L24.77 1.33Q23.60 2.30 21.37 3.10L21.37 3.10L21.37 3.10Q19.14 3.91 16.42 3.91L16.42 3.91L16.42 3.91Q10.63 3.91 7.43 0.55L7.43 0.55L7.43 0.55Q4.23-2.81 4.23-8.92L4.23-8.92L4.23-8.92Q4.23-17.25 9.61-22.63L9.61-22.63L9.61-22.63Q15.00-28.01 23.74-28.01L23.74-28.01L23.74-28.01Q27.78-28.01 29.58-26.57L29.58-26.57L29.58-26.57Q31.37-25.12 31.37-22.03L31.37-22.03L31.37-22.03Q31.37-19.96 29.35-16.93L29.35-16.93L29.35-16.93Q27.51-13.98 27.51-12.33L27.51-12.33L26.50-12.33L26.50-12.33Q26.50-13.25 26.86-14.31L26.86-14.31L26.86-14.31Q27.23-15.36 27.51-15.82L27.51-15.82L27.51-15.82Q27.78-16.28 28.52-17.48L28.52-17.48L28.52-17.48Q30.31-20.19 30.31-21.94L30.31-21.94L30.31-21.94Q30.31-25.62 27.28-26.59L27.28-26.59L27.28-26.59Q25.85-27.05 24.29-27.05L24.29-27.05L24.29-27.05Q22.72-27.05 20.98-26.86L20.98-26.86L20.98-26.86Q19.37-26.36 17.92-25.55L17.92-25.55L17.92-25.55Q16.47-24.75 14.90-23.11L14.90-23.11L14.90-23.11Q13.34-21.48 12.24-19.32L12.24-19.32L12.24-19.32Q11.13-17.16 10.40-13.78L10.40-13.78L10.40-13.78Q9.66-10.40 9.66-6.26" fill="#53e5ea" stroke="none" stroke-width="none" transform="translate(-125.85501098632812,10.524246403620797)" style="transform:matrix(1, 0, 0, 1, -125.855, 10.5242);fill:rgb(83, 229, 234);animation-play-state:paused" ></path></g>
<g class="path" style="transform-origin:-84.5px 1.78425px;transform:matrix(1.01808, 0, 0, 1.01808, 0, 0);animation-timing-function:linear;animation-play-state:paused;animation-name:breath-629b9d7c-0de3-4226-b563-7e09d9233bb3;animation-iteration-count:infinite;animation-fill-mode:forwards;animation-duration:1s;animation-delay:-0.558462s" ><path d="M39.56 0.41L39.56 0.41Q36.02 0.41 34.18-1.36L34.18-1.36L34.18-1.36Q32.34-3.13 32.34-5.82L32.34-5.82L32.34-5.82Q32.34-8.51 32.82-10.42L32.82-10.42L32.82-10.42Q33.30-12.33 34.41-14.10L34.41-14.10L34.41-14.10Q35.51-15.87 37.74-16.88L37.74-16.88L37.74-16.88Q39.97-17.89 43.31-17.89L43.31-17.89L43.31-17.89Q46.64-17.89 48.51-16.12L48.51-16.12L48.51-16.12Q50.37-14.35 50.37-11.27L50.37-11.27L50.37-11.27Q50.37-6.03 47.59-2.81L47.59-2.81L47.59-2.81Q44.80 0.41 39.56 0.41L39.56 0.41zM37.54-4.32L37.54-4.32L37.54-4.32Q37.54-0.64 39.67-0.64L39.67-0.64L39.67-0.64Q41.81-0.64 43.49-4.35L43.49-4.35L43.49-4.35Q45.17-8.05 45.17-13.16L45.17-13.16L45.17-13.16Q45.17-17.02 43.08-17.02L43.08-17.02L43.08-17.02Q40.99-17.02 39.26-13.50L39.26-13.50L39.26-13.50Q37.54-9.98 37.54-4.32" fill="#53e5ea" stroke="none" stroke-width="none" transform="translate(-125.85501098632812,10.524246403620797)" style="transform:matrix(1, 0, 0, 1, -125.855, 10.5242);fill:rgb(151, 220, 110);animation-play-state:paused" ></path></g>
<g class="path" style="transform-origin:-64.905px 1.78425px;transform:matrix(1.0294, 0, 0, 1.0294, 0, 0);animation-timing-function:linear;animation-play-state:paused;animation-name:breath-629b9d7c-0de3-4226-b563-7e09d9233bb3;animation-iteration-count:infinite;animation-fill-mode:forwards;animation-duration:1s;animation-delay:-0.507692s" ><path d="M63.71-9.61L63.71-9.61L63.71-9.61Q62.74-10.58 62.74-11.96L62.74-11.96L62.74-11.96Q62.74-13.34 63.71-14.33L63.71-14.33L63.71-14.33Q64.68-15.32 66.06-15.32L66.06-15.32L66.06-15.32Q66.47-15.32 67.11-15.13L67.11-15.13L67.11-15.13Q66.24-16.74 63.85-16.74L63.85-16.74L63.85-16.74Q61.46-16.74 59.62-13.71L59.62-13.71L59.62-13.71Q57.78-10.67 57.78-4.69L57.78-4.69L57.78-4.69Q57.78-2.62 58.72-1.63L58.72-1.63L58.72-1.63Q59.66-0.64 61.09-0.64L61.09-0.64L61.09-0.64Q62.51-0.64 63.69-1.20L63.69-1.20L63.69-1.20Q64.86-1.75 65.55-2.51L65.55-2.51L65.55-2.51Q66.24-3.27 66.75-4.09L66.75-4.09L66.75-4.09Q67.67-5.61 67.67-6.03L67.67-6.03L68.49-5.66L68.49-5.66Q68.36-4.92 67.67-3.70L67.67-3.70L67.67-3.70Q66.98-2.48 66.15-1.70L66.15-1.70L66.15-1.70Q65.32-0.92 63.71-0.25L63.71-0.25L63.71-0.25Q62.10 0.41 60.12 0.41L60.12 0.41L60.12 0.41Q56.40 0.41 54.49-1.36L54.49-1.36L54.49-1.36Q52.58-3.13 52.58-6.21L52.58-6.21L52.58-6.21Q52.58-11.68 55.31-14.79L55.31-14.79L55.31-14.79Q58.05-17.89 62.74-17.89L62.74-17.89L62.74-17.89Q65.92-17.89 67.62-16.28L67.62-16.28L67.62-16.28Q69.32-14.67 69.32-12.05L69.32-12.05L69.32-12.05Q69.32-10.40 68.33-9.52L68.33-9.52L68.33-9.52Q67.34-8.65 66.01-8.65L66.01-8.65L66.01-8.65Q64.68-8.65 63.71-9.61" fill="#53e5ea" stroke="none" stroke-width="none" transform="translate(-125.85501098632812,10.524246403620797)" style="transform:matrix(1, 0, 0, 1, -125.855, 10.5242);fill:rgb(251, 83, 83);animation-play-state:paused" ></path></g>
<g class="path" style="transform-origin:-45.1px -4.17575px;transform:matrix(1.01746, 0, 0, 1.01746, 0, 0);animation-timing-function:linear;animation-play-state:paused;animation-name:breath-629b9d7c-0de3-4226-b563-7e09d9233bb3;animation-iteration-count:infinite;animation-fill-mode:forwards;animation-duration:1s;animation-delay:-0.456923s" ><path d="M77.88-8.88L77.88-8.88L76.22 0L70.75 0L75.95-28.89L75.95-28.89Q74.57-28.75 73.65-27.60L73.65-27.60L72.96-28.15L72.96-28.15Q74.34-29.81 76.43-29.81L76.43-29.81L76.43-29.81Q78.52-29.81 79.67-28.75L79.67-28.75L79.67-28.75Q80.82-27.69 80.82-25.76L80.82-25.76L80.82-25.76Q80.82-25.39 80.73-24.56L80.73-24.56L80.73-24.56Q79.67-18.72 78.43-11.96L78.43-11.96L78.43-11.96Q79.58-14.77 81.74-16.33L81.74-16.33L81.74-16.33Q83.90-17.89 86.34-17.89L86.34-17.89L86.34-17.89Q88.78-17.89 89.77-16.93L89.77-16.93L89.77-16.93Q90.76-15.96 90.76-14.51L90.76-14.51L90.76-14.51Q90.76-13.06 89.88-12.14L89.88-12.14L89.88-12.14Q89.01-11.22 87.61-11.22L87.61-11.22L87.61-11.22Q86.20-11.22 85.44-12.03L85.44-12.03L85.44-12.03Q84.69-12.83 84.69-14.42L84.69-14.42L84.69-14.42Q84.69-16.01 85.79-16.84L85.79-16.84L85.79-16.84Q81.37-16.33 78.75-10.30L78.75-10.30L78.75-10.30Q79.40-10.40 79.86-10.40L79.86-10.40L79.86-10.40Q82.29-10.40 83.70-9.43L83.70-9.43L83.70-9.43Q85.10-8.46 85.51-7.06L85.51-7.06L85.51-7.06Q85.93-5.66 86.11-4.25L86.11-4.25L86.11-4.25Q86.30-2.85 86.71-1.89L86.71-1.89L86.71-1.89Q87.12-0.92 88.18-0.92L88.18-0.92L88.18-0.92Q89.24-0.92 89.84-1.79L89.84-1.79L90.53-1.24L90.53-1.24Q90.21-0.60 89.10-0.09L89.10-0.09L89.10-0.09Q88.00 0.41 86.27 0.41L86.27 0.41L86.27 0.41Q84.55 0.41 83.24-0.46L83.24-0.46L83.24-0.46Q81.93-1.33 81.42-2.65L81.42-2.65L81.42-2.65Q80.91-3.96 80.59-5.24L80.59-5.24L80.59-5.24Q79.72-8.56 77.88-8.88" fill="#53e5ea" stroke="none" stroke-width="none" transform="translate(-125.85501098632812,10.524246403620797)" style="transform:matrix(1, 0, 0, 1, -125.855, 10.5242);fill:rgb(249, 174, 92);animation-play-state:paused" ></path></g>
<g class="path" style="transform-origin:-25.76px -1.62075px;transform:matrix(1.00552, 0, 0, 1.00552, 0, 0);animation-timing-function:linear;animation-play-state:paused;animation-name:breath-629b9d7c-0de3-4226-b563-7e09d9233bb3;animation-iteration-count:infinite;animation-fill-mode:forwards;animation-duration:1s;animation-delay:-0.406154s" ><path d="M93.38-17.48L95.73-17.48L96.97-24.29L96.97-24.29Q100.37-24.29 102.03-24.56L102.03-24.56L102.63-24.70L102.63-24.70Q101.98-21.48 101.20-17.48L101.20-17.48L106.90-17.48L106.81-16.65L101.06-16.65L101.06-16.65Q98.76-4.78 98.76-2.35L98.76-2.35L98.76-2.35Q98.76-0.87 100.33-0.87L100.33-0.87L100.33-0.87Q101.89-0.87 103.18-2.85L103.18-2.85L103.18-2.85Q104.47-4.83 105.02-7.13L105.02-7.13L105.85-6.85L105.85-6.85Q104.14 0.41 98.81 0.41L98.81 0.41L98.81 0.41Q96.60 0.41 95.13-0.80L95.13-0.80L95.13-0.80Q93.66-2.02 93.66-4.21L93.66-4.21L93.66-4.21Q93.66-6.39 95.54-16.65L95.54-16.65L93.29-16.65L93.38-17.48" fill="#53e5ea" stroke="none" stroke-width="none" transform="translate(-125.85501098632812,10.524246403620797)" style="transform:matrix(1, 0, 0, 1, -125.855, 10.5242);fill:rgb(228, 129, 47);animation-play-state:paused" ></path></g>
<g class="path" style="transform-origin:-8.23001px 1.78425px;transform:matrix(0.993578, 0, 0, 0.993578, 0, 0);animation-timing-function:linear;animation-play-state:paused;animation-name:breath-629b9d7c-0de3-4226-b563-7e09d9233bb3;animation-iteration-count:infinite;animation-fill-mode:forwards;animation-duration:1s;animation-delay:-0.355385s" ><path d="M123.92 0.41L123.92 0.41L123.92 0.41Q119.88 0.41 119.51-3.13L119.51-3.13L119.51-3.13Q117.48 0.41 114.40 0.41L114.40 0.41L114.40 0.41Q111.32 0.41 109.50-1.45L109.50-1.45L109.50-1.45Q107.69-3.31 107.69-6.67L107.69-6.67L107.69-6.67Q107.69-11.91 110.26-14.90L110.26-14.90L110.26-14.90Q112.84-17.89 116.93-17.89L116.93-17.89L116.93-17.89Q120.29-17.89 121.39-14.72L121.39-14.72L121.39-14.72Q121.62-16.10 121.90-17.48L121.90-17.48L121.90-17.48Q125.30-17.48 126.96-17.76L126.96-17.76L127.56-17.89L124.38-0.51L124.38-0.51Q125.76-0.64 126.68-1.79L126.68-1.79L127.37-1.24L127.37-1.24Q125.99 0.41 123.92 0.41zM112.88-4.32L112.88-4.32Q112.88-2.25 113.41-1.45L113.41-1.45L113.41-1.45Q113.94-0.64 115.05-0.64L115.05-0.64L115.05-0.64Q116.15-0.64 117.30-1.84L117.30-1.84L117.30-1.84Q118.82-3.40 119.74-5.80L119.74-5.80L119.74-5.80Q119.88-6.39 120.27-8.67L120.27-8.67L120.27-8.67Q120.66-10.95 120.93-12.42L120.93-12.42L120.93-12.42Q120.80-14.17 119.97-15.46L119.97-15.46L119.97-15.46Q119.14-16.74 117.90-16.74L117.90-16.74L117.90-16.74Q115.64-16.74 114.26-12.72L114.26-12.72L114.26-12.72Q112.88-8.69 112.88-4.32L112.88-4.32" fill="#53e5ea" stroke="none" stroke-width="none" transform="translate(-125.85501098632812,10.524246403620797)" style="transform:matrix(1, 0, 0, 1, -125.855, 10.5242);fill:rgb(83, 229, 234);animation-play-state:paused" ></path></g>
<g class="path" style="transform-origin:8.75999px 1.78425px;transform:matrix(0.981638, 0, 0, 0.981638, 0, 0);animation-timing-function:linear;animation-play-state:paused;animation-name:breath-629b9d7c-0de3-4226-b563-7e09d9233bb3;animation-iteration-count:infinite;animation-fill-mode:forwards;animation-duration:1s;animation-delay:-0.304615s" ><path d="M138.46-1.24L138.46-1.24Q137.08 0.41 135.01 0.41L135.01 0.41L135.01 0.41Q132.94 0.41 131.77-0.64L131.77-0.64L131.77-0.64Q130.59-1.70 130.59-3.40L130.59-3.40L130.59-3.40Q130.59-4.00 131.33-8.42L131.33-8.42L132.85-16.65L130.92-16.65L131.01-17.48L132.99-17.48L132.99-17.48Q136.39-17.48 138-17.76L138-17.76L138.64-17.89L135.47-0.51L135.47-0.51Q136.85-0.64 137.77-1.79L137.77-1.79L138.46-1.24" fill="#53e5ea" stroke="none" stroke-width="none" transform="translate(-125.85501098632812,10.524246403620797)" style="transform:matrix(1, 0, 0, 1, -125.855, 10.5242);fill:rgb(151, 220, 110);animation-play-state:paused" ></path></g>
<g class="path" style="transform-origin:10.93px -14.1508px;transform:matrix(0.969699, 0, 0, 0.969699, 0, 0);animation-timing-function:linear;animation-play-state:paused;animation-name:breath-629b9d7c-0de3-4226-b563-7e09d9233bb3;animation-iteration-count:infinite;animation-fill-mode:forwards;animation-duration:1s;animation-delay:-0.253846s" ><path d="M134.41-22.31L134.41-22.31L134.41-22.31Q133.45-23.28 133.45-24.66L133.45-24.66L133.45-24.66Q133.45-26.04 134.41-27.02L134.41-27.02L134.41-27.02Q135.38-28.01 136.76-28.01L136.76-28.01L136.76-28.01Q138.14-28.01 139.13-27.02L139.13-27.02L139.13-27.02Q140.12-26.04 140.12-24.66L140.12-24.66L140.12-24.66Q140.12-23.28 139.13-22.31L139.13-22.31L139.13-22.31Q138.14-21.34 136.76-21.34L136.76-21.34L136.76-21.34Q135.38-21.34 134.41-22.31" fill="#53e5ea" stroke="none" stroke-width="none" transform="translate(-125.85501098632812,10.524246403620797)" style="transform:matrix(1, 0, 0, 1, -125.855, 10.5242);fill:rgb(251, 83, 83);animation-play-state:paused" ></path></g>
<g class="path" style="transform-origin:21.875px -4.17575px;transform:matrix(0.957759, 0, 0, 0.957759, 0, 0);animation-timing-function:linear;animation-play-state:paused;animation-name:breath-629b9d7c-0de3-4226-b563-7e09d9233bb3;animation-iteration-count:infinite;animation-fill-mode:forwards;animation-duration:1s;animation-delay:-0.203077s" ><path d="M149.50-1.66L149.50-1.66L149.50-1.66Q148.90-0.87 147.87-0.23L147.87-0.23L147.87-0.23Q146.83 0.41 145.18 0.41L145.18 0.41L145.18 0.41Q143.52 0.41 142.37-0.64L142.37-0.64L142.37-0.64Q141.22-1.70 141.22-3.63L141.22-3.63L141.22-3.63Q141.22-4.00 141.31-4.83L141.31-4.83L144.30-21.39L144.30-21.39Q145.13-25.94 146.58-27.88L146.58-27.88L146.58-27.88Q148.03-29.81 150.42-29.81L150.42-29.81L150.42-29.81Q152.08-29.81 153.16-28.57L153.16-28.57L153.16-28.57Q154.24-27.32 154.24-24.79L154.24-24.79L154.24-24.79Q154.24-22.26 152.28-17.57L152.28-17.57L152.28-17.57Q150.33-12.88 150.33-10.72L150.33-10.72L149.50-10.72L149.50-10.72Q149.50-13.16 151.43-17.69L151.43-17.69L151.43-17.69Q153.36-22.22 153.36-24.93L153.36-24.93L153.36-24.93Q153.36-26.59 152.60-27.78L152.60-27.78L152.60-27.78Q151.85-28.98 150.74-28.98L150.74-28.98L150.74-28.98Q150.70-27.78 149.16-18.24L149.16-18.24L149.16-18.24Q147.61-8.69 146.10-0.51L146.10-0.51L146.10-0.51Q147.38-0.51 148.49-1.84L148.49-1.84L148.49-1.84Q149.59-3.17 150.05-4.51L150.05-4.51L150.56-5.89L151.39-5.52L151.39-5.52Q151.25-4.88 150.67-3.66L150.67-3.66L150.67-3.66Q150.10-2.44 149.50-1.66" fill="#53e5ea" stroke="none" stroke-width="none" transform="translate(-125.85501098632812,10.524246403620797)" style="transform:matrix(1, 0, 0, 1, -125.855, 10.5242);fill:rgb(249, 174, 92);animation-play-state:paused" ></path></g>
<g class="path" style="transform-origin:68.01px 0.334246px;transform:matrix(0.945819, 0, 0, 0.945819, 0, 0);animation-timing-function:linear;animation-play-state:paused;animation-name:breath-629b9d7c-0de3-4226-b563-7e09d9233bb3;animation-iteration-count:infinite;animation-fill-mode:forwards;animation-duration:1s;animation-delay:-0.152308s" ><path d="M219.74 3.77L220.34 4.55L220.34 4.55Q218.59 6.30 215.81 6.30L215.81 6.30L215.81 6.30Q213.03 6.30 211.37 4.49L211.37 4.49L211.37 4.49Q209.71 2.67 209.71-0.30L209.71-0.30L209.71-0.30Q209.71-3.27 210.77-7.13L210.77-7.13L212.84-13.94L212.84-13.94Q208.98-9.06 205.76-4.60L205.76-4.60L205.76-4.60Q199.41 4.19 197.16 7.18L197.16 7.18L196.33 6.95L194.53-15.32L190.85-8.60L190.85-8.60Q185.61 1.29 182.09 4.44L182.09 4.44L182.09 4.44Q178.57 7.59 172.73 7.59L172.73 7.59L172.73 7.59Q167.76 7.59 164.50 4.05L164.50 4.05L164.50 4.05Q161.92 1.15 161.92-2.90L161.92-2.90L161.92-2.90Q161.92-3.63 162.01-4.42L162.01-4.42L162.93-4.32L162.93-4.32Q162.84-3.59 162.84-2.90L162.84-2.90L162.84-2.90Q162.84 0.83 165.19 3.40L165.19 3.40L165.19 3.40Q168.18 6.67 172.73 6.67L172.73 6.67L172.73 6.67Q178.20 6.67 181.56 3.61L181.56 3.61L181.56 3.61Q184.92 0.55 190.03-9.02L190.03-9.02L198.31-24.06L198.31-24.06Q193.43-24.15 188.85-25.60L188.85-25.60L188.85-25.60Q184.28-27.05 180.67-27.05L180.67-27.05L180.67-27.05Q177.05-27.05 174.62-24.52L174.62-24.52L174.62-24.52Q172.18-21.99 172.18-17.99L172.18-17.99L171.26-17.99L171.26-17.99Q171.26-22.40 173.95-25.18L173.95-25.18L173.95-25.18Q176.64-27.97 180.92-27.97L180.92-27.97L180.92-27.97Q184.37-27.97 189.13-26.47L189.13-26.47L189.13-26.47Q193.89-24.98 199.41-24.98L199.41-24.98L201.34-0.14L202.26-1.43L202.26-1.43Q211.97-14.77 217.26-20.49L217.26-20.49L217.26-20.49Q222.55-26.22 225.81-26.22L225.81-26.22L225.81-25.30L225.81-25.30Q224.39-25.30 222.18-23.74L222.18-23.74L222.18-23.74Q221.86-22.72 220.02-16.72L220.02-16.72L220.02-16.72Q218.18-10.72 216.73-6.23L216.73-6.23L216.73-6.23Q215.28-1.75 215.28 1.10L215.28 1.10L215.28 1.10Q215.28 3.96 216.29 5.34L216.29 5.34L216.29 5.34Q217.26 5.34 218.11 4.95L218.11 4.95L218.11 4.95Q218.96 4.55 219.37 4.14L219.37 4.14L219.74 3.77" fill="#53e5ea" stroke="none" stroke-width="none" transform="translate(-125.85501098632812,10.524246403620797)" style="transform:matrix(1, 0, 0, 1, -125.855, 10.5242);fill:rgb(228, 129, 47);animation-play-state:paused" ></path></g>
<g class="path" style="transform-origin:103.94px 1.78425px;transform:matrix(0.933879, 0, 0, 0.933879, 0, 0);animation-timing-function:linear;animation-play-state:paused;animation-name:breath-629b9d7c-0de3-4226-b563-7e09d9233bb3;animation-iteration-count:infinite;animation-fill-mode:forwards;animation-duration:1s;animation-delay:-0.101538s" ><path d="M233.63-1.24L233.63-1.24Q232.25 0.41 230.18 0.41L230.18 0.41L230.18 0.41Q228.11 0.41 226.94-0.64L226.94-0.64L226.94-0.64Q225.77-1.70 225.77-3.40L225.77-3.40L225.77-3.40Q225.77-4.00 226.50-8.42L226.50-8.42L228.02-16.65L226.09-16.65L226.18-17.48L228.16-17.48L228.16-17.48Q231.56-17.48 233.17-17.76L233.17-17.76L233.82-17.89L230.64-0.51L230.64-0.51Q232.02-0.64 232.94-1.79L232.94-1.79L233.63-1.24" fill="#53e5ea" stroke="none" stroke-width="none" transform="translate(-125.85501098632812,10.524246403620797)" style="transform:matrix(1, 0, 0, 1, -125.855, 10.5242);fill:rgb(83, 229, 234);animation-play-state:paused" ></path></g>
<g class="path" style="transform-origin:106.1px -14.1508px;transform:matrix(0.92194, 0, 0, 0.92194, 0, 0);animation-timing-function:linear;animation-play-state:paused;animation-name:breath-629b9d7c-0de3-4226-b563-7e09d9233bb3;animation-iteration-count:infinite;animation-fill-mode:forwards;animation-duration:1s;animation-delay:-0.0507692s" ><path d="M229.59-22.31L229.59-22.31L229.59-22.31Q228.62-23.28 228.62-24.66L228.62-24.66L228.62-24.66Q228.62-26.04 229.59-27.02L229.59-27.02L229.59-27.02Q230.55-28.01 231.93-28.01L231.93-28.01L231.93-28.01Q233.31-28.01 234.30-27.02L234.30-27.02L234.30-27.02Q235.29-26.04 235.29-24.66L235.29-24.66L235.29-24.66Q235.29-23.28 234.30-22.31L234.30-22.31L234.30-22.31Q233.31-21.34 231.93-21.34L231.93-21.34L231.93-21.34Q230.55-21.34 229.59-22.31" fill="#53e5ea" stroke="none" stroke-width="none" transform="translate(-125.85501098632812,10.524246403620797)" style="transform:matrix(1, 0, 0, 1, -125.855, 10.5242);fill:rgb(151, 220, 110);animation-play-state:paused" ></path></g>
<g class="path" style="transform-origin:120.175px 1.78425px;transform:matrix(0.91, 0, 0, 0.91, 0, 0);animation-timing-function:linear;animation-play-state:paused;animation-name:breath-629b9d7c-0de3-4226-b563-7e09d9233bb3;animation-iteration-count:infinite;animation-fill-mode:forwards;animation-duration:1s" ><path d="M248.58-8.74L250.98-2.90L250.98-2.90Q251.53-1.47 252.75-1.47L252.75-1.47L252.75-1.47Q253.97-1.47 254.79-3.04L254.79-3.04L255.53-2.62L255.53-2.62Q255.07-1.84 254.72-1.40L254.72-1.40L254.72-1.40Q254.38-0.97 253.39-0.48L253.39-0.48L253.39-0.48Q252.40 0 250.98 0L250.98 0L250.98 0Q246.93 0 245.55-3.40L245.55-3.40L243.80-7.64L243.80-7.64Q241.09-7.36 239.43-6.26L239.43-6.26L239.48-6.26L239.48-6.26Q240.86-6.26 241.82-5.29L241.82-5.29L241.82-5.29Q242.79-4.32 242.79-2.94L242.79-2.94L242.79-2.94Q242.79-1.56 241.82-0.57L241.82-0.57L241.82-0.57Q240.86 0.41 239.48 0.41L239.48 0.41L239.48 0.41Q238.10 0.41 237.11-0.57L237.11-0.57L237.11-0.57Q236.12-1.56 236.12-2.94L236.12-2.94L236.12-2.94Q236.12-5.20 238.21-6.79L238.21-6.79L238.21-6.79Q240.30-8.37 243.39-8.69L243.39-8.69L240.86-15.00L240.86-15.00Q240.30-16.42 239.13-16.42L239.13-16.42L239.13-16.42Q237.96-16.42 237.04-14.86L237.04-14.86L236.35-15.27L236.35-15.27Q236.81-16.05 237.15-16.49L237.15-16.49L237.15-16.49Q237.50-16.93 238.49-17.41L238.49-17.41L238.49-17.41Q239.48-17.89 240.90-17.89L240.90-17.89L240.90-17.89Q244.90-17.89 246.28-14.49L246.28-14.49L248.17-9.80L248.17-9.80Q251.02-10.07 252.63-11.22L252.63-11.22L252.59-11.22L252.59-11.22Q251.21-11.22 250.24-12.19L250.24-12.19L250.24-12.19Q249.27-13.16 249.27-14.54L249.27-14.54L249.27-14.54Q249.27-15.92 250.24-16.91L250.24-16.91L250.24-16.91Q251.21-17.89 252.59-17.89L252.59-17.89L252.59-17.89Q253.97-17.89 254.96-16.91L254.96-16.91L254.96-16.91Q255.94-15.92 255.94-14.54L255.94-14.54L255.94-14.54Q255.94-12.19 253.78-10.60L253.78-10.60L253.78-10.60Q251.62-9.02 248.58-8.74L248.58-8.74" fill="#53e5ea" stroke="none" stroke-width="none" transform="translate(-125.85501098632812,10.524246403620797)" style="transform:matrix(1, 0, 0, 1, -125.855, 10.5242);fill:rgb(251, 83, 83);animation-play-state:paused" ></path></g></g></g></g></svg>