<?xml version="1.0" encoding="utf-8"?><svg xmlns="http://www.w3.org/2000/svg" width="280" height="250" preserveAspectRatio="xMidYMid" xmlns:xlink="http://www.w3.org/1999/xlink" style="margin-right:-2px;display:block;background-color:rgb(255, 251, 243);animation-play-state:paused" ><style type="text/css" style="animation-play-state:paused" >text {
    text-anchor: middle; font-size: 46px; opacity: 0;
  }</style>


<g style="transform-origin:140px 125px;transform:matrix(0.575, 0, 0, 0.575, 0, 0);animation-play-state:paused" ><g transform="translate(140,125)" style="transform:matrix(1, 0, 0, 1, 140, 125);animation-play-state:paused" ><g transform="translate(0,0)" style="transform:matrix(1, 0, 0, 1, 0, 0);animation-play-state:paused" ><g class="path" style="transform-origin:-187.92px -2.65686px;transform:matrix(1.00565, 0, 0, 1.00565, 0, 0);animation-timing-function:linear;animation-play-state:paused;animation-name:breath-629b9d7c-0de3-4226-b563-7e09d9233bb3;animation-iteration-count:infinite;animation-fill-mode:forwards;animation-duration:1s;animation-delay:-0.609231s" ><path d="M16.80-10.88L16.80-10.88L16.80-10.88Q16.80 1.12 24.56 4.96L24.56 4.96L24.56 4.96Q26.48 5.20 29.64 5.20L29.64 5.20L29.64 5.20Q32.80 5.20 36.32 4L36.32 4L36.32 4Q39.84 2.80 41.76 1.04L41.76 1.04L41.76 1.04Q45.84-2.72 46.88-5.44L46.88-5.44L47.28-6.64L48.88-6L48.88-6Q48.32-4.16 46.72-1.76L46.72-1.76L46.72-1.76Q45.12 0.64 43.08 2.32L43.08 2.32L43.08 2.32Q41.04 4 37.16 5.40L37.16 5.40L37.16 5.40Q33.28 6.80 28.56 6.80L28.56 6.80L28.56 6.80Q18.48 6.80 12.92 0.96L12.92 0.96L12.92 0.96Q7.36-4.88 7.36-15.52L7.36-15.52L7.36-15.52Q7.36-30 16.72-39.36L16.72-39.36L16.72-39.36Q26.08-48.72 41.28-48.72L41.28-48.72L41.28-48.72Q48.32-48.72 51.44-46.20L51.44-46.20L51.44-46.20Q54.56-43.68 54.56-38.32L54.56-38.32L54.56-38.32Q54.56-34.72 51.04-29.44L51.04-29.44L51.04-29.44Q47.84-24.32 47.84-21.44L47.84-21.44L46.08-21.44L46.08-21.44Q46.08-23.04 46.72-24.88L46.72-24.88L46.72-24.88Q47.36-26.72 47.84-27.52L47.84-27.52L47.84-27.52Q48.32-28.32 49.60-30.40L49.60-30.40L49.60-30.40Q52.72-35.12 52.72-38.16L52.72-38.16L52.72-38.16Q52.72-44.56 47.44-46.24L47.44-46.24L47.44-46.24Q44.96-47.04 42.24-47.04L42.24-47.04L42.24-47.04Q39.52-47.04 36.48-46.72L36.48-46.72L36.48-46.72Q33.68-45.84 31.16-44.44L31.16-44.44L31.16-44.44Q28.64-43.04 25.92-40.20L25.92-40.20L25.92-40.20Q23.20-37.36 21.28-33.60L21.28-33.60L21.28-33.60Q19.36-29.84 18.08-23.96L18.08-23.96L18.08-23.96Q16.80-18.08 16.80-10.88" fill="#51cacc" stroke="none" stroke-width="none" transform="translate(-218.8800048828125,18.303137676532458)" style="transform:matrix(1, 0, 0, 1, -218.88, 18.3031);fill:rgb(81, 202, 204);animation-play-state:paused" ></path></g>
<g class="path" style="transform-origin:-146.96px 3.10314px;transform:matrix(1.01808, 0, 0, 1.01808, 0, 0);animation-timing-function:linear;animation-play-state:paused;animation-name:breath-629b9d7c-0de3-4226-b563-7e09d9233bb3;animation-iteration-count:infinite;animation-fill-mode:forwards;animation-duration:1s;animation-delay:-0.558462s" ><path d="M68.80 0.72L68.80 0.72Q62.64 0.72 59.44-2.36L59.44-2.36L59.44-2.36Q56.24-5.44 56.24-10.12L56.24-10.12L56.24-10.12Q56.24-14.80 57.08-18.12L57.08-18.12L57.08-18.12Q57.92-21.44 59.84-24.52L59.84-24.52L59.84-24.52Q61.76-27.60 65.64-29.36L65.64-29.36L65.64-29.36Q69.52-31.12 75.32-31.12L75.32-31.12L75.32-31.12Q81.12-31.12 84.36-28.04L84.36-28.04L84.36-28.04Q87.60-24.96 87.60-19.60L87.60-19.60L87.60-19.60Q87.60-10.48 82.76-4.88L82.76-4.88L82.76-4.88Q77.92 0.72 68.80 0.72L68.80 0.72zM65.28-7.52L65.28-7.52L65.28-7.52Q65.28-1.12 69-1.12L69-1.12L69-1.12Q72.72-1.12 75.64-7.56L75.64-7.56L75.64-7.56Q78.56-14 78.56-22.88L78.56-22.88L78.56-22.88Q78.56-29.60 74.92-29.60L74.92-29.60L74.92-29.60Q71.28-29.60 68.28-23.48L68.28-23.48L68.28-23.48Q65.28-17.36 65.28-7.52" fill="#51cacc" stroke="none" stroke-width="none" transform="translate(-218.8800048828125,18.303137676532458)" style="transform:matrix(1, 0, 0, 1, -218.88, 18.3031);fill:rgb(157, 248, 113);animation-play-state:paused" ></path></g>
<g class="path" style="transform-origin:-112.88px 3.10314px;transform:matrix(1.0294, 0, 0, 1.0294, 0, 0);animation-timing-function:linear;animation-play-state:paused;animation-name:breath-629b9d7c-0de3-4226-b563-7e09d9233bb3;animation-iteration-count:infinite;animation-fill-mode:forwards;animation-duration:1s;animation-delay:-0.507692s" ><path d="M110.80-16.72L110.80-16.72L110.80-16.72Q109.12-18.40 109.12-20.80L109.12-20.80L109.12-20.80Q109.12-23.20 110.80-24.92L110.80-24.92L110.80-24.92Q112.48-26.64 114.88-26.64L114.88-26.64L114.88-26.64Q115.60-26.64 116.72-26.32L116.72-26.32L116.72-26.32Q115.20-29.12 111.04-29.12L111.04-29.12L111.04-29.12Q106.88-29.12 103.68-23.84L103.68-23.84L103.68-23.84Q100.48-18.56 100.48-8.16L100.48-8.16L100.48-8.16Q100.48-4.56 102.12-2.84L102.12-2.84L102.12-2.84Q103.76-1.12 106.24-1.12L106.24-1.12L106.24-1.12Q108.72-1.12 110.76-2.08L110.76-2.08L110.76-2.08Q112.80-3.04 114.00-4.36L114.00-4.36L114.00-4.36Q115.20-5.68 116.08-7.12L116.08-7.12L116.08-7.12Q117.68-9.76 117.68-10.48L117.68-10.48L119.12-9.84L119.12-9.84Q118.88-8.56 117.68-6.44L117.68-6.44L117.68-6.44Q116.48-4.32 115.04-2.96L115.04-2.96L115.04-2.96Q113.60-1.60 110.80-0.44L110.80-0.44L110.80-0.44Q108.00 0.72 104.56 0.72L104.56 0.72L104.56 0.72Q98.08 0.72 94.76-2.36L94.76-2.36L94.76-2.36Q91.44-5.44 91.44-10.80L91.44-10.80L91.44-10.80Q91.44-20.32 96.20-25.72L96.20-25.72L96.20-25.72Q100.96-31.12 109.12-31.12L109.12-31.12L109.12-31.12Q114.64-31.12 117.60-28.32L117.60-28.32L117.60-28.32Q120.56-25.52 120.56-20.96L120.56-20.96L120.56-20.96Q120.56-18.08 118.84-16.56L118.84-16.56L118.84-16.56Q117.12-15.04 114.80-15.04L114.80-15.04L114.80-15.04Q112.48-15.04 110.80-16.72" fill="#51cacc" stroke="none" stroke-width="none" transform="translate(-218.8800048828125,18.303137676532458)" style="transform:matrix(1, 0, 0, 1, -218.88, 18.3031);fill:rgb(224, 255, 119);animation-play-state:paused" ></path></g>
<g class="path" style="transform-origin:-78.44px -7.25686px;transform:matrix(1.01746, 0, 0, 1.01746, 0, 0);animation-timing-function:linear;animation-play-state:paused;animation-name:breath-629b9d7c-0de3-4226-b563-7e09d9233bb3;animation-iteration-count:infinite;animation-fill-mode:forwards;animation-duration:1s;animation-delay:-0.456923s" ><path d="M135.44-15.44L135.44-15.44L132.56 0L123.04 0L132.08-50.24L132.08-50.24Q129.68-50 128.08-48L128.08-48L126.88-48.96L126.88-48.96Q129.28-51.84 132.92-51.84L132.92-51.84L132.92-51.84Q136.56-51.84 138.56-50L138.56-50L138.56-50Q140.56-48.16 140.56-44.80L140.56-44.80L140.56-44.80Q140.56-44.16 140.40-42.72L140.40-42.72L140.40-42.72Q138.56-32.56 136.40-20.80L136.40-20.80L136.40-20.80Q138.40-25.68 142.16-28.40L142.16-28.40L142.16-28.40Q145.92-31.12 150.16-31.12L150.16-31.12L150.16-31.12Q154.40-31.12 156.12-29.44L156.12-29.44L156.12-29.44Q157.84-27.76 157.84-25.24L157.84-25.24L157.84-25.24Q157.84-22.72 156.32-21.12L156.32-21.12L156.32-21.12Q154.80-19.52 152.36-19.52L152.36-19.52L152.36-19.52Q149.92-19.52 148.60-20.92L148.60-20.92L148.60-20.92Q147.28-22.32 147.28-25.08L147.28-25.08L147.28-25.08Q147.28-27.84 149.20-29.28L149.20-29.28L149.20-29.28Q141.52-28.40 136.96-17.92L136.96-17.92L136.96-17.92Q138.08-18.08 138.88-18.08L138.88-18.08L138.88-18.08Q143.12-18.08 145.56-16.40L145.56-16.40L145.56-16.40Q148.00-14.72 148.72-12.28L148.72-12.28L148.72-12.28Q149.44-9.84 149.76-7.40L149.76-7.40L149.76-7.40Q150.08-4.96 150.80-3.28L150.80-3.28L150.80-3.28Q151.52-1.60 153.36-1.60L153.36-1.60L153.36-1.60Q155.20-1.60 156.24-3.12L156.24-3.12L157.44-2.16L157.44-2.16Q156.88-1.04 154.96-0.16L154.96-0.16L154.96-0.16Q153.04 0.72 150.04 0.72L150.04 0.72L150.04 0.72Q147.04 0.72 144.76-0.80L144.76-0.80L144.76-0.80Q142.48-2.32 141.60-4.60L141.60-4.60L141.60-4.60Q140.72-6.88 140.16-9.12L140.16-9.12L140.16-9.12Q138.64-14.88 135.44-15.44" fill="#51cacc" stroke="none" stroke-width="none" transform="translate(-218.8800048828125,18.303137676532458)" style="transform:matrix(1, 0, 0, 1, -218.88, 18.3031);fill:rgb(222, 157, 214);animation-play-state:paused" ></path></g>
<g class="path" style="transform-origin:-44.8px -2.81686px;transform:matrix(1.00552, 0, 0, 1.00552, 0, 0);animation-timing-function:linear;animation-play-state:paused;animation-name:breath-629b9d7c-0de3-4226-b563-7e09d9233bb3;animation-iteration-count:infinite;animation-fill-mode:forwards;animation-duration:1s;animation-delay:-0.406154s" ><path d="M162.40-30.40L166.48-30.40L168.64-42.24L168.64-42.24Q174.56-42.24 177.44-42.72L177.44-42.72L178.48-42.96L178.48-42.96Q177.36-37.36 176-30.40L176-30.40L185.92-30.40L185.76-28.96L175.76-28.96L175.76-28.96Q171.76-8.32 171.76-4.08L171.76-4.08L171.76-4.08Q171.76-1.52 174.48-1.52L174.48-1.52L174.48-1.52Q177.20-1.52 179.44-4.96L179.44-4.96L179.44-4.96Q181.68-8.40 182.64-12.40L182.64-12.40L184.08-11.92L184.08-11.92Q181.12 0.72 171.84 0.72L171.84 0.72L171.84 0.72Q168 0.72 165.44-1.40L165.44-1.40L165.44-1.40Q162.88-3.52 162.88-7.32L162.88-7.32L162.88-7.32Q162.88-11.12 166.16-28.96L166.16-28.96L162.24-28.96L162.40-30.40" fill="#51cacc" stroke="none" stroke-width="none" transform="translate(-218.8800048828125,18.303137676532458)" style="transform:matrix(1, 0, 0, 1, -218.88, 18.3031);fill:rgb(255, 112, 142);animation-play-state:paused" ></path></g>
<g class="path" style="transform-origin:-14.32px 3.10314px;transform:matrix(0.993578, 0, 0, 0.993578, 0, 0);animation-timing-function:linear;animation-play-state:paused;animation-name:breath-629b9d7c-0de3-4226-b563-7e09d9233bb3;animation-iteration-count:infinite;animation-fill-mode:forwards;animation-duration:1s;animation-delay:-0.355385s" ><path d="M215.52 0.72L215.52 0.72L215.52 0.72Q208.48 0.72 207.84-5.44L207.84-5.44L207.84-5.44Q204.32 0.72 198.96 0.72L198.96 0.72L198.96 0.72Q193.60 0.72 190.44-2.52L190.44-2.52L190.44-2.52Q187.28-5.76 187.28-11.60L187.28-11.60L187.28-11.60Q187.28-20.72 191.76-25.92L191.76-25.92L191.76-25.92Q196.24-31.12 203.36-31.12L203.36-31.12L203.36-31.12Q209.20-31.12 211.12-25.60L211.12-25.60L211.12-25.60Q211.52-28 212-30.40L212-30.40L212-30.40Q217.92-30.40 220.80-30.88L220.80-30.88L221.84-31.12L216.32-0.88L216.32-0.88Q218.72-1.12 220.32-3.12L220.32-3.12L221.52-2.16L221.52-2.16Q219.12 0.72 215.52 0.72zM196.32-7.52L196.32-7.52Q196.32-3.92 197.24-2.52L197.24-2.52L197.24-2.52Q198.16-1.12 200.08-1.12L200.08-1.12L200.08-1.12Q202-1.12 204-3.20L204-3.20L204-3.20Q206.64-5.92 208.24-10.08L208.24-10.08L208.24-10.08Q208.48-11.12 209.16-15.08L209.16-15.08L209.16-15.08Q209.84-19.04 210.32-21.60L210.32-21.60L210.32-21.60Q210.08-24.64 208.64-26.88L208.64-26.88L208.64-26.88Q207.20-29.12 205.04-29.12L205.04-29.12L205.04-29.12Q201.12-29.12 198.72-22.12L198.72-22.12L198.72-22.12Q196.32-15.12 196.32-7.52L196.32-7.52" fill="#51cacc" stroke="none" stroke-width="none" transform="translate(-218.8800048828125,18.303137676532458)" style="transform:matrix(1, 0, 0, 1, -218.88, 18.3031);fill:rgb(81, 202, 204);animation-play-state:paused" ></path></g>
<g class="path" style="transform-origin:15.24px 3.10314px;transform:matrix(0.981638, 0, 0, 0.981638, 0, 0);animation-timing-function:linear;animation-play-state:paused;animation-name:breath-629b9d7c-0de3-4226-b563-7e09d9233bb3;animation-iteration-count:infinite;animation-fill-mode:forwards;animation-duration:1s;animation-delay:-0.304615s" ><path d="M240.80-2.16L240.80-2.16Q238.40 0.72 234.80 0.72L234.80 0.72L234.80 0.72Q231.20 0.72 229.16-1.12L229.16-1.12L229.16-1.12Q227.12-2.96 227.12-5.92L227.12-5.92L227.12-5.92Q227.12-6.96 228.40-14.64L228.40-14.64L231.04-28.96L227.68-28.96L227.84-30.40L231.28-30.40L231.28-30.40Q237.20-30.40 240-30.88L240-30.88L241.12-31.12L235.60-0.88L235.60-0.88Q238-1.12 239.60-3.12L239.60-3.12L240.80-2.16" fill="#51cacc" stroke="none" stroke-width="none" transform="translate(-218.8800048828125,18.303137676532458)" style="transform:matrix(1, 0, 0, 1, -218.88, 18.3031);fill:rgb(157, 248, 113);animation-play-state:paused" ></path></g>
<g class="path" style="transform-origin:19px -24.6169px;transform:matrix(0.969699, 0, 0, 0.969699, 0, 0);animation-timing-function:linear;animation-play-state:paused;animation-name:breath-629b9d7c-0de3-4226-b563-7e09d9233bb3;animation-iteration-count:infinite;animation-fill-mode:forwards;animation-duration:1s;animation-delay:-0.253846s" ><path d="M233.76-38.80L233.76-38.80L233.76-38.80Q232.08-40.48 232.08-42.88L232.08-42.88L232.08-42.88Q232.08-45.28 233.76-47L233.76-47L233.76-47Q235.44-48.72 237.84-48.72L237.84-48.72L237.84-48.72Q240.24-48.72 241.96-47L241.96-47L241.96-47Q243.68-45.28 243.68-42.88L243.68-42.88L243.68-42.88Q243.68-40.48 241.96-38.80L241.96-38.80L241.96-38.80Q240.24-37.12 237.84-37.12L237.84-37.12L237.84-37.12Q235.44-37.12 233.76-38.80" fill="#51cacc" stroke="none" stroke-width="none" transform="translate(-218.8800048828125,18.303137676532458)" style="transform:matrix(1, 0, 0, 1, -218.88, 18.3031);fill:rgb(224, 255, 119);animation-play-state:paused" ></path></g>
<g class="path" style="transform-origin:38.04px -7.25686px;transform:matrix(0.957759, 0, 0, 0.957759, 0, 0);animation-timing-function:linear;animation-play-state:paused;animation-name:breath-629b9d7c-0de3-4226-b563-7e09d9233bb3;animation-iteration-count:infinite;animation-fill-mode:forwards;animation-duration:1s;animation-delay:-0.203077s" ><path d="M260-2.88L260-2.88L260-2.88Q258.96-1.52 257.16-0.40L257.16-0.40L257.16-0.40Q255.36 0.72 252.48 0.72L252.48 0.72L252.48 0.72Q249.60 0.72 247.60-1.12L247.60-1.12L247.60-1.12Q245.60-2.96 245.60-6.32L245.60-6.32L245.60-6.32Q245.60-6.96 245.76-8.40L245.76-8.40L250.96-37.20L250.96-37.20Q252.40-45.12 254.92-48.48L254.92-48.48L254.92-48.48Q257.44-51.84 261.60-51.84L261.60-51.84L261.60-51.84Q264.48-51.84 266.36-49.68L266.36-49.68L266.36-49.68Q268.24-47.52 268.24-43.12L268.24-43.12L268.24-43.12Q268.24-38.72 264.84-30.56L264.84-30.56L264.84-30.56Q261.44-22.40 261.44-18.64L261.44-18.64L260-18.64L260-18.64Q260-22.88 263.36-30.76L263.36-30.76L263.36-30.76Q266.72-38.64 266.72-43.36L266.72-43.36L266.72-43.36Q266.72-46.24 265.40-48.32L265.40-48.32L265.40-48.32Q264.08-50.40 262.16-50.40L262.16-50.40L262.16-50.40Q262.08-48.32 259.40-31.72L259.40-31.72L259.40-31.72Q256.72-15.12 254.08-0.88L254.08-0.88L254.08-0.88Q256.32-0.88 258.24-3.20L258.24-3.20L258.24-3.20Q260.16-5.52 260.96-7.84L260.96-7.84L261.84-10.24L263.28-9.60L263.28-9.60Q263.04-8.48 262.04-6.36L262.04-6.36L262.04-6.36Q261.04-4.24 260-2.88" fill="#51cacc" stroke="none" stroke-width="none" transform="translate(-218.8800048828125,18.303137676532458)" style="transform:matrix(1, 0, 0, 1, -218.88, 18.3031);fill:rgb(222, 157, 214);animation-play-state:paused" ></path></g>
<g class="path" style="transform-origin:118.28px 0.583138px;transform:matrix(0.945819, 0, 0, 0.945819, 0, 0);animation-timing-function:linear;animation-play-state:paused;animation-name:breath-629b9d7c-0de3-4226-b563-7e09d9233bb3;animation-iteration-count:infinite;animation-fill-mode:forwards;animation-duration:1s;animation-delay:-0.152308s" ><path d="M382.16 6.56L383.20 7.92L383.20 7.92Q380.16 10.96 375.32 10.96L375.32 10.96L375.32 10.96Q370.48 10.96 367.60 7.80L367.60 7.80L367.60 7.80Q364.72 4.64 364.72-0.52L364.72-0.52L364.72-0.52Q364.72-5.68 366.56-12.40L366.56-12.40L370.16-24.24L370.16-24.24Q363.44-15.76 357.84-8L357.84-8L357.84-8Q346.80 7.28 342.88 12.48L342.88 12.48L341.44 12.08L338.32-26.64L331.92-14.96L331.92-14.96Q322.80 2.24 316.68 7.72L316.68 7.72L316.68 7.72Q310.56 13.20 300.40 13.20L300.40 13.20L300.40 13.20Q291.76 13.20 286.08 7.04L286.08 7.04L286.08 7.04Q281.60 2 281.60-5.04L281.60-5.04L281.60-5.04Q281.60-6.32 281.76-7.68L281.76-7.68L283.36-7.52L283.36-7.52Q283.20-6.24 283.20-5.04L283.20-5.04L283.20-5.04Q283.20 1.44 287.28 5.92L287.28 5.92L287.28 5.92Q292.48 11.60 300.40 11.60L300.40 11.60L300.40 11.60Q309.92 11.60 315.76 6.28L315.76 6.28L315.76 6.28Q321.60 0.96 330.48-15.68L330.48-15.68L344.88-41.84L344.88-41.84Q336.40-42 328.44-44.52L328.44-44.52L328.44-44.52Q320.48-47.04 314.20-47.04L314.20-47.04L314.20-47.04Q307.92-47.04 303.68-42.64L303.68-42.64L303.68-42.64Q299.44-38.24 299.44-31.28L299.44-31.28L297.84-31.28L297.84-31.28Q297.84-38.96 302.52-43.80L302.52-43.80L302.52-43.80Q307.20-48.64 314.64-48.64L314.64-48.64L314.64-48.64Q320.64-48.64 328.92-46.04L328.92-46.04L328.92-46.04Q337.20-43.44 346.80-43.44L346.80-43.44L350.16-0.24L351.76-2.48L351.76-2.48Q368.64-25.68 377.84-35.64L377.84-35.64L377.84-35.64Q387.04-45.60 392.72-45.60L392.72-45.60L392.72-44L392.72-44Q390.24-44 386.40-41.28L386.40-41.28L386.40-41.28Q385.84-39.52 382.64-29.08L382.64-29.08L382.64-29.08Q379.44-18.64 376.92-10.84L376.92-10.84L376.92-10.84Q374.40-3.04 374.40 1.92L374.40 1.92L374.40 1.92Q374.40 6.88 376.16 9.28L376.16 9.28L376.16 9.28Q377.84 9.28 379.32 8.60L379.32 8.60L379.32 8.60Q380.80 7.92 381.52 7.20L381.52 7.20L382.16 6.56" fill="#51cacc" stroke="none" stroke-width="none" transform="translate(-218.8800048828125,18.303137676532458)" style="transform:matrix(1, 0, 0, 1, -218.88, 18.3031);fill:rgb(255, 112, 142);animation-play-state:paused" ></path></g>
<g class="path" style="transform-origin:180.76px 3.10314px;transform:matrix(0.933879, 0, 0, 0.933879, 0, 0);animation-timing-function:linear;animation-play-state:paused;animation-name:breath-629b9d7c-0de3-4226-b563-7e09d9233bb3;animation-iteration-count:infinite;animation-fill-mode:forwards;animation-duration:1s;animation-delay:-0.101538s" ><path d="M406.32-2.16L406.32-2.16Q403.92 0.72 400.32 0.72L400.32 0.72L400.32 0.72Q396.72 0.72 394.68-1.12L394.68-1.12L394.68-1.12Q392.64-2.96 392.64-5.92L392.64-5.92L392.64-5.92Q392.64-6.96 393.92-14.64L393.92-14.64L396.56-28.96L393.20-28.96L393.36-30.40L396.80-30.40L396.80-30.40Q402.72-30.40 405.52-30.88L405.52-30.88L406.64-31.12L401.12-0.88L401.12-0.88Q403.52-1.12 405.12-3.12L405.12-3.12L406.32-2.16" fill="#51cacc" stroke="none" stroke-width="none" transform="translate(-218.8800048828125,18.303137676532458)" style="transform:matrix(1, 0, 0, 1, -218.88, 18.3031);fill:rgb(81, 202, 204);animation-play-state:paused" ></path></g>
<g class="path" style="transform-origin:184.52px -24.6169px;transform:matrix(0.92194, 0, 0, 0.92194, 0, 0);animation-timing-function:linear;animation-play-state:paused;animation-name:breath-629b9d7c-0de3-4226-b563-7e09d9233bb3;animation-iteration-count:infinite;animation-fill-mode:forwards;animation-duration:1s;animation-delay:-0.0507692s" ><path d="M399.28-38.80L399.28-38.80L399.28-38.80Q397.60-40.48 397.60-42.88L397.60-42.88L397.60-42.88Q397.60-45.28 399.28-47L399.28-47L399.28-47Q400.96-48.72 403.36-48.72L403.36-48.72L403.36-48.72Q405.76-48.72 407.48-47L407.48-47L407.48-47Q409.20-45.28 409.20-42.88L409.20-42.88L409.20-42.88Q409.20-40.48 407.48-38.80L407.48-38.80L407.48-38.80Q405.76-37.12 403.36-37.12L403.36-37.12L403.36-37.12Q400.96-37.12 399.28-38.80" fill="#51cacc" stroke="none" stroke-width="none" transform="translate(-218.8800048828125,18.303137676532458)" style="transform:matrix(1, 0, 0, 1, -218.88, 18.3031);fill:rgb(157, 248, 113);animation-play-state:paused" ></path></g>
<g class="path" style="transform-origin:209px 3.10314px;transform:matrix(0.91, 0, 0, 0.91, 0, 0);animation-timing-function:linear;animation-play-state:paused;animation-name:breath-629b9d7c-0de3-4226-b563-7e09d9233bb3;animation-iteration-count:infinite;animation-fill-mode:forwards;animation-duration:1s" ><path d="M432.32-15.20L436.48-5.04L436.48-5.04Q437.44-2.56 439.56-2.56L439.56-2.56L439.56-2.56Q441.68-2.56 443.12-5.28L443.12-5.28L444.40-4.56L444.40-4.56Q443.60-3.20 443-2.44L443-2.44L443-2.44Q442.40-1.68 440.68-0.84L440.68-0.84L440.68-0.84Q438.96 0 436.48 0L436.48 0L436.48 0Q429.44 0 427.04-5.92L427.04-5.92L424-13.28L424-13.28Q419.28-12.80 416.40-10.88L416.40-10.88L416.48-10.88L416.48-10.88Q418.88-10.88 420.56-9.20L420.56-9.20L420.56-9.20Q422.24-7.52 422.24-5.12L422.24-5.12L422.24-5.12Q422.24-2.72 420.56-1L420.56-1L420.56-1Q418.88 0.72 416.48 0.72L416.48 0.72L416.48 0.72Q414.08 0.72 412.36-1L412.36-1L412.36-1Q410.64-2.72 410.64-5.12L410.64-5.12L410.64-5.12Q410.64-9.04 414.28-11.80L414.28-11.80L414.28-11.80Q417.92-14.56 423.28-15.12L423.28-15.12L418.88-26.08L418.88-26.08Q417.92-28.56 415.88-28.56L415.88-28.56L415.88-28.56Q413.84-28.56 412.24-25.84L412.24-25.84L411.04-26.56L411.04-26.56Q411.84-27.92 412.44-28.68L412.44-28.68L412.44-28.68Q413.04-29.44 414.76-30.28L414.76-30.28L414.76-30.28Q416.48-31.12 418.96-31.12L418.96-31.12L418.96-31.12Q425.92-31.12 428.32-25.20L428.32-25.20L431.60-17.04L431.60-17.04Q436.56-17.52 439.36-19.52L439.36-19.52L439.28-19.52L439.28-19.52Q436.88-19.52 435.20-21.20L435.20-21.20L435.20-21.20Q433.52-22.88 433.52-25.28L433.52-25.28L433.52-25.28Q433.52-27.68 435.20-29.40L435.20-29.40L435.20-29.40Q436.88-31.12 439.28-31.12L439.28-31.12L439.28-31.12Q441.68-31.12 443.40-29.40L443.40-29.40L443.40-29.40Q445.12-27.68 445.12-25.28L445.12-25.28L445.12-25.28Q445.12-21.20 441.36-18.44L441.36-18.44L441.36-18.44Q437.60-15.68 432.32-15.20L432.32-15.20" fill="#51cacc" stroke="none" stroke-width="none" transform="translate(-218.8800048828125,18.303137676532458)" style="transform:matrix(1, 0, 0, 1, -218.88, 18.3031);fill:rgb(224, 255, 119);animation-play-state:paused" ></path></g></g></g></g></svg>